<svg id="Layer_1_1_" enable-background="new 0 0 64 64" height="512" viewBox="0 0 64 64" width="512" xmlns="http://www.w3.org/2000/svg"><path d="m16 36v-3c0-2.698-1.537-5.04-3.779-6.208 1.079-.918 1.779-2.268 1.779-3.792 0-2.757-2.243-5-5-5s-5 2.243-5 5c0 1.524.7 2.874 1.779 3.792-2.242 1.168-3.779 3.51-3.779 6.208v3c0 .553.447 1 1 1h6 6c.553 0 1-.447 1-1zm-10-13c0-1.654 1.346-3 3-3s3 1.346 3 3-1.346 3-3 3-3-1.346-3-3zm8 12h-10v-2c0-2.757 2.243-5 5-5s5 2.243 5 5z"/><path d="m58.221 26.792c1.079-.918 1.779-2.268 1.779-3.792 0-2.757-2.243-5-5-5s-5 2.243-5 5c0 1.524.7 2.874 1.779 3.792-2.242 1.168-3.779 3.51-3.779 6.208v3c0 .553.447 1 1 1h6 6c.553 0 1-.447 1-1v-3c0-2.698-1.537-5.04-3.779-6.208zm-6.221-3.792c0-1.654 1.346-3 3-3s3 1.346 3 3-1.346 3-3 3-3-1.346-3-3zm8 12h-10v-2c0-2.757 2.243-5 5-5s5 2.243 5 5z"/><path d="m21 26h1v3c0 .553.447 1 1 1h20c.553 0 1-.447 1-1v-24c0-.553-.447-1-1-1h-3v-1c0-.553-.447-1-1-1h-12c-.266 0-.52.105-.707.293l-6 6c-.188.187-.293.441-.293.707v16c0 .553.447 1 1 1zm19-1v-19h2v22h-18v-2h15c.553 0 1-.447 1-1zm-2-1h-16v-14h5c.553 0 1-.447 1-1v-5h10zm-14.586-16 2.586-2.586v2.586z"/><path d="m24 12h12v2h-12z"/><path d="m24 16h12v2h-12z"/><path d="m24 20h12v2h-12z"/><path d="m30 8h6v2h-6z"/><path d="m44 37h-24c-1.654 0-3 1.346-3 3v12 2c0 1.654 1.346 3 3 3h7.523l-1.2 3h-3.323v2h18v-2h-3.323l-1.2-3h7.523c1.654 0 3-1.346 3-3v-2-12c0-1.654-1.346-3-3-3zm-8.477 23h-7.047l1.2-3h4.646zm8.477-5h-24c-.552 0-1-.448-1-1v-14c0-.552.448-1 1-1h24c.552 0 1 .448 1 1v11h-4v2h4v1c0 .552-.448 1-1 1z"/><path d="m54 14h2v2h-2z"/><path d="m54 10h2v2h-2z"/><path d="m50 10h2v2h-2z"/><path d="m46 10h2v2h-2z"/><path d="m8 14h2v2h-2z"/><path d="m8 10h2v2h-2z"/><path d="m12 10h2v2h-2z"/><path d="m16 10h2v2h-2z"/><path d="m51.293 40.293 1.414 1.414 1.293-1.293v10.586h-3.586l1.293-1.293-1.414-1.414-3 3c-.195.195-.293.451-.293.707s.098.512.293.707l3 3 1.414-1.414-1.293-1.293h4.586c.553 0 1-.447 1-1v-11.586l1.293 1.293 1.414-1.414-3-3c-.195-.195-.451-.293-.707-.293s-.512.098-.707.293z"/><path d="m13.707 48.293-1.414 1.414 1.293 1.293h-3.586v-10.586l1.293 1.293 1.414-1.414-3-3c-.195-.195-.451-.293-.707-.293s-.512.098-.707.293l-3 3 1.414 1.414 1.293-1.293v11.586c0 .553.447 1 1 1h4.586l-1.293 1.293 1.414 1.414 3-3c.195-.195.293-.451.293-.707s-.098-.512-.293-.707z"/><path d="m32 44c.552 0 1 .448 1 1h2c0-1.302-.839-2.402-2-2.816v-1.184h-2v1.184c-1.161.414-2 1.514-2 2.816 0 1.654 1.346 3 3 3 .552 0 1 .448 1 1s-.448 1-1 1-1-.448-1-1h-2c0 1.302.839 2.402 2 2.816v1.184h2v-1.184c1.161-.414 2-1.514 2-2.816 0-1.654-1.346-3-3-3-.552 0-1-.448-1-1s.448-1 1-1z"/><path d="m37 51h2v2h-2z"/></svg>